HIERARCHY
ROOT hip
{
  OFFSET 0 0 0
  CHANNELS 6 Xposition Yposition Zposition Zrotation Yrotation Xrotation
  JOINT abdomen
  {
    OFFSET 0 20.6881 -0.73152
    CHANNELS 3 Zrotation Xrotation Yrotation
    JOINT chest
    {
      OFFSET 0 11.7043 -0.48768
      CHANNELS 3 Zrotation Xrotation Yrotation
      JOINT neck
      {
        OFFSET 0 22.1894 -2.19456
        CHANNELS 3 Zrotation Xrotation Yrotation
        JOINT head
        {
          OFFSET -0.24384 7.07133 1.2192
          CHANNELS 3 Zrotation Xrotation Yrotation
          JOINT leftEye
          {
            OFFSET 4.14528 8.04674 8.04672
            CHANNELS 3 Zrotation Xrotation Yrotation
            End Site
            {
              OFFSET 1 0 0
            }
          }
          JOINT rightEye
          {
            OFFSET -3.6576 8.04674 8.04672
            CHANNELS 3 Zrotation Xrotation Yrotation
            End Site
            {
              OFFSET 1 0 0
            }
          }
        }
      }
      JOINT rCollar
      {
        OFFSET -2.68224 19.2634 -4.8768
        CHANNELS 3 Zrotation Xrotation Yrotation
        JOINT rShldr
        {
          OFFSET -8.77824 -1.95073 1.46304
          CHANNELS 3 Zrotation Xrotation Yrotation
          JOINT rForeArm
          {
            OFFSET -28.1742 -1.7115 0.48768
            CHANNELS 3 Zrotation Xrotation Yrotation
            JOINT rHand
            {
              OFFSET -22.5879 0.773209 7.07136
              CHANNELS 3 Zrotation Xrotation Yrotation
              JOINT rThumb1
              {
                OFFSET -1.2192 -0.487915 3.41376
                CHANNELS 3 Zrotation Xrotation Yrotation
                JOINT rThumb2
                {
                  OFFSET -3.37035 -0.52449 3.41376
                  CHANNELS 3 Zrotation Xrotation Yrotation
                  End Site
                  {
                    OFFSET -1.78271 -1.18214 1.43049
                  }
                }
              }
              JOINT rIndex1
              {
                OFFSET -7.75947 0.938293 5.60832
                CHANNELS 3 Zrotation Xrotation Yrotation
                JOINT rIndex2
                {
                  OFFSET -2.54057 -0.884171 1.56538
                  CHANNELS 3 Zrotation Xrotation Yrotation
                  End Site
                  {
                    OFFSET -1.62519 -0.234802 1.16502
                  }
                }
              }
              JOINT rMid1
              {
                OFFSET -8.24714 1.18213 3.41376
                CHANNELS 3 Zrotation Xrotation Yrotation
                JOINT rMid2
                {
                  OFFSET -3.10165 -0.590103 1.0647
                  CHANNELS 3 Zrotation Xrotation Yrotation
                  End Site
                  {
                    OFFSET -2.48547 -0.328903 0.83742
                  }
                }
              }
              JOINT rRing1
              {
                OFFSET -8.82822 0.546677 1.51678
                CHANNELS 3 Zrotation Xrotation Yrotation
                JOINT rRing2
                {
                  OFFSET -2.60934 -0.819778 -0.0198488
                  CHANNELS 3 Zrotation Xrotation Yrotation
                  End Site
                  {
                    OFFSET -2.33842 -0.294052 0.168128
                  }
                }
              }
              JOINT rPinky1
              {
                OFFSET -8.27202 -0.0477905 -0.4584
                CHANNELS 3 Zrotation Xrotation Yrotation
                JOINT rPinky2
                {
                  OFFSET -1.82734 -0.647385 -0.700984
                  CHANNELS 3 Zrotation Xrotation Yrotation
                  End Site
                  {
                    OFFSET -1.69225 -0.51767 -0.607171
                  }
                }
              }
            }
          }
        }
      }
      JOINT lCollar
      {
        OFFSET 2.68224 19.2634 -4.8768
        CHANNELS 3 Zrotation Xrotation Yrotation
        JOINT lShldr
        {
          OFFSET 8.77824 -1.95073 1.46304
          CHANNELS 3 Zrotation Xrotation Yrotation
          JOINT lForeArm
          {
            OFFSET 28.1742 -1.7115 0.48768
            CHANNELS 3 Zrotation Xrotation Yrotation
            JOINT lHand
            {
              OFFSET 22.5879 0.773209 7.07136
              CHANNELS 3 Zrotation Xrotation Yrotation
              JOINT lThumb1
              {
                OFFSET 1.2192 -0.487915 3.41376
                CHANNELS 3 Zrotation Xrotation Yrotation
                JOINT lThumb2
                {
                  OFFSET 3.37035 -0.52449 3.41376
                  CHANNELS 3 Zrotation Xrotation Yrotation
                  End Site
                  {
                    OFFSET 1.78271 -1.18214 1.43049
                  }
                }
              }
              JOINT lIndex1
              {
                OFFSET 7.75947 0.938293 5.60832
                CHANNELS 3 Zrotation Xrotation Yrotation
                JOINT lIndex2
                {
                  OFFSET 2.54057 -0.884171 1.56538
                  CHANNELS 3 Zrotation Xrotation Yrotation
                  End Site
                  {
                    OFFSET 1.62519 -0.234802 1.16502
                  }
                }
              }
              JOINT lMid1
              {
                OFFSET 8.24714 1.18213 3.41376
                CHANNELS 3 Zrotation Xrotation Yrotation
                JOINT lMid2
                {
                  OFFSET 3.10165 -0.590103 1.0647
                  CHANNELS 3 Zrotation Xrotation Yrotation
                  End Site
                  {
                    OFFSET 2.48547 -0.328903 0.83742
                  }
                }
              }
              JOINT lRing1
              {
                OFFSET 8.82822 0.546677 1.51678
                CHANNELS 3 Zrotation Xrotation Yrotation
                JOINT lRing2
                {
                  OFFSET 2.60934 -0.819778 -0.0198488
                  CHANNELS 3 Zrotation Xrotation Yrotation
                  End Site
                  {
                    OFFSET 2.33842 -0.294052 0.168128
                  }
                }
              }
              JOINT lPinky1
              {
                OFFSET 8.27202 -0.0477905 -0.4584
                CHANNELS 3 Zrotation Xrotation Yrotation
                JOINT lPinky2
                {
                  OFFSET 1.82734 -0.647385 -0.700984
                  CHANNELS 3 Zrotation Xrotation Yrotation
                  End Site
                  {
                    OFFSET 1.69225 -0.51767 -0.607171
                  }
                }
              }
            }
          }
        }
      }
    }
  }
  JOINT rButtock
  {
    OFFSET -8.77824 4.35084 1.2192
    CHANNELS 3 Zrotation Xrotation Yrotation
    JOINT rThigh
    {
      OFFSET 0 -1.70687 -2.19456
      CHANNELS 3 Zrotation Xrotation Yrotation
      JOINT rShin
      {
        OFFSET 0 -36.8199 0.73152
        CHANNELS 3 Zrotation Xrotation Yrotation
        JOINT rFoot
        {
          OFFSET 0.73152 -45.1104 -5.12064
          CHANNELS 3 Zrotation Xrotation Yrotation
          End Site
          {
            OFFSET -1.1221 -3.69964 12.103
          }
        }
      }
    }
  }
  JOINT lButtock
  {
    OFFSET 8.77824 4.35084 1.2192
    CHANNELS 3 Zrotation Xrotation Yrotation
    JOINT lThigh
    {
      OFFSET 0 -1.70687 -2.19456
      CHANNELS 3 Zrotation Xrotation Yrotation
      JOINT lShin
      {
        OFFSET 0 -36.8199 0.73152
        CHANNELS 3 Zrotation Xrotation Yrotation
        JOINT lFoot
        {
          OFFSET -0.73152 -45.1104 -5.12064
          CHANNELS 3 Zrotation Xrotation Yrotation
          End Site
          {
            OFFSET 1.1221 -3.69964 12.103
          }
        }
      }
    }
  }
}
MOTION
Frames:	8
Frame Time:	0.00833333
-1.62144 82.5339 -174.863 -6.1552 -4.2561 10.4568 10.1958 8.72123 8.25836 2.5003 -2.07425 2.54835 -3.93323 -1.90756 -1.59255 -9.41443 -12.3546 -2.96336 -0.0 0.0 0.0 -0.0 0.0 0.0 2.60585e-13 -5.10848e-14 1.9366e-14 73.2059 -8.40008 12.9633 -4.43414 -1.39104 7.70402 -0.00445662 1.92408 0.270519 -3.66227e-09 7.81575e-11 1.48416e-09 -6.32488e-09 1.36364e-10 2.57498e-09 -3.66226e-09 7.81595e-11 1.48416e-09 7.73091 5.47488 0.417314 -3.66227e-09 7.81577e-11 1.48416e-09 2.90554 0.965183 0.102902 -3.66226e-09 7.81583e-11 1.48416e-09 10.2786 0.731801 0.0259123 -3.66227e-09 7.81583e-11 1.48417e-09 2.22167 -0.733487 -0.20892 2.60493e-13 -5.10908e-14 1.90492e-14 -85.4583 24.7446 9.4605 14.0389 -6.98661 -25.6309 0.0405816 5.77284 -0.814054 -3.73135e-09 -1.25716e-09 -2.42839e-09 -6.46276e-09 -2.17651e-09 -4.17686e-09 -3.73135e-09 -1.25716e-09 -2.42837e-09 -7.73091 5.47488 -0.417314 -3.73134e-09 -1.25716e-09 -2.42838e-09 -2.90554 0.965183 -0.102902 -3.73135e-09 -1.25716e-09 -2.42839e-09 -10.2786 0.731801 -0.0259123 -3.73134e-09 -1.25716e-09 -2.4284e-09 -2.22167 -0.733487 0.20892 -2.03217e-16 0.0 -3.88251e-19 8.83757 3.97704 -0.418941 0.0395689 15.2263 0.703678 -1.42691 -11.2384 -3.40744 2.03217e-16 0.0 3.88251e-19 3.8585 -41.3829 -2.67289 0.150069 25.8122 -0.428773 0.291252 -0.182983 -2.553
-1.48453 82.4432 -174.181 -5.8117 -4.4847 10.1226 9.48642 8.89416 8.36228 2.48936 -2.15513 2.57036 -4.02618 -1.79748 -1.69507 -9.05105 -12.7998 -3.14446 -0.0 0.0 0.0 -0.0 0.0 0.0 2.5195e-13 -4.12635e-14 2.42964e-14 73.235 -8.24993 13.0423 -4.55806 -1.43932 7.92296 -0.00264578 1.50505 0.211567 -3.79625e-09 3.69697e-10 1.43643e-09 -6.55772e-09 6.4068e-10 2.49194e-09 -3.79625e-09 3.697e-10 1.43643e-09 7.73091 5.47488 0.417314 -3.79625e-09 3.69697e-10 1.43643e-09 2.90554 0.965183 0.102902 -3.79624e-09 3.69698e-10 1.43643e-09 10.2786 0.731801 0.0259123 -3.79625e-09 3.69698e-10 1.43643e-09 2.22167 -0.733487 -0.20892 2.51818e-13 -4.12824e-14 2.39252e-14 -85.2714 24.2811 9.52828 13.9013 -6.87556 -25.3545 0.0468969 6.19039 -0.873401 -3.81254e-09 -1.26234e-09 -2.33141e-09 -6.60363e-09 -2.186e-09 -4.0071e-09 -3.81255e-09 -1.26234e-09 -2.33139e-09 -7.73091 5.47488 -0.417314 -3.81254e-09 -1.26234e-09 -2.3314e-09 -2.90554 0.965183 -0.102902 -3.81255e-09 -1.26234e-09 -2.33141e-09 -10.2786 0.731801 -0.0259123 -3.81253e-09 -1.26233e-09 -2.33142e-09 -2.22167 -0.733487 0.20892 -2.03217e-16 0.0 -3.88251e-19 8.32198 3.54153 -0.402498 0.0346379 17.0721 0.708394 -1.37659 -11.0379 -3.13306 2.03217e-16 0.0 3.88251e-19 3.39994 -41.0389 -2.57511 0.153871 26.1689 -0.418278 0.238548 -0.204386 -3.11839
-1.36696 82.4436 -173.579 -5.6847 -4.4457 9.9315 8.7977 9.07854 8.48905 2.47367 -2.2426 2.59864 -4.11385 -1.68498 -1.78987 -8.66408 -13.198 -3.30267 -0.0 0.0 0.0 -0.0 0.0 0.0 2.20312e-13 -2.54324e-14 4.17448e-15 73.2738 -8.18784 13.1055 -4.67087 -1.48369 8.12252 -0.00155917 1.12742 0.158469 -3.50025e-09 3.13684e-10 1.11794e-09 -6.04749e-09 5.43614e-10 1.94031e-09 -3.50025e-09 3.13687e-10 1.11795e-09 7.73091 5.47488 0.417314 -3.50025e-09 3.13684e-10 1.11795e-09 2.90554 0.965183 0.102902 -3.50025e-09 3.13685e-10 1.11795e-09 10.2786 0.731801 0.0259123 -3.50026e-09 3.13685e-10 1.11795e-09 2.22167 -0.733487 -0.20892 2.2016e-13 -2.54572e-14 3.77691e-15 -85.081 23.8963 9.60072 13.7858 -6.78287 -25.1242 0.0523326 6.5144 -0.919544 -3.47766e-09 -1.04283e-09 -2.06583e-09 -6.02387e-09 -1.80635e-09 -3.54917e-09 -3.47766e-09 -1.04284e-09 -2.06581e-09 -7.73091 5.47488 -0.417314 -3.47766e-09 -1.04284e-09 -2.06583e-09 -2.90554 0.965183 -0.102902 -3.47766e-09 -1.04283e-09 -2.06583e-09 -10.2786 0.731801 -0.0259123 -3.47765e-09 -1.04283e-09 -2.06584e-09 -2.22167 -0.733487 0.20892 -2.03217e-16 0.0 -3.88251e-19 7.81104 3.08751 -0.389114 0.0243917 18.9301 0.71438 -1.3077 -10.6478 -2.83273 2.03217e-16 0.0 3.88251e-19 2.92201 -40.6657 -2.59842 0.158285 26.5761 -0.409665 0.182109 -0.303673 -3.64495
-1.2366 82.4639 -172.998 -5.5012 -4.4149 9.7086 8.11253 9.28784 8.67198 2.44215 -2.36168 2.64263 -4.17883 -1.53556 -1.87436 -8.25451 -13.5711 -3.44083 -0.0 0.0 0.0 -0.0 0.0 0.0 1.41956e-13 2.12169e-15 -7.03209e-14 73.3612 -8.36173 13.1156 -4.76492 -1.52109 8.28895 -0.00221277 0.908873 0.127725 -2.38912e-09 -4.41104e-10 2.5409e-10 -4.12876e-09 -7.62564e-10 4.44962e-10 -2.38912e-09 -4.41101e-10 2.54092e-10 7.73091 5.47488 0.417314 -2.38912e-09 -4.41103e-10 2.54097e-10 2.90554 0.965183 0.102902 -2.38911e-09 -4.41103e-10 2.54095e-10 10.2786 0.731801 0.0259123 -2.38912e-09 -4.41102e-10 2.54097e-10 2.22167 -0.733487 -0.20892 1.41811e-13 2.10176e-15 -7.07044e-14 -84.8868 23.6432 9.71267 13.7059 -6.71907 -24.9652 0.0555902 6.69862 -0.945812 -2.34686e-09 -3.79495e-10 -1.49518e-09 -4.06596e-09 -6.58051e-10 -2.56997e-09 -2.34687e-09 -3.79497e-10 -1.49516e-09 -7.73091 5.47488 -0.417314 -2.34686e-09 -3.79496e-10 -1.49517e-09 -2.90554 0.965183 -0.102902 -2.34687e-09 -3.79494e-10 -1.49518e-09 -10.2786 0.731801 -0.0259123 -2.34685e-09 -3.79492e-10 -1.49519e-09 -2.22167 -0.733487 0.20892 -2.03217e-16 0.0 -3.88251e-19 7.28051 2.62321 -0.375598 0.00733159 20.797 0.722415 -1.21564 -10.0777 -2.47583 2.03217e-16 0.0 3.88251e-19 2.38784 -40.2585 -2.83476 0.163624 27.0677 -0.404237 0.118652 -0.481495 -4.13352
-1.07674 82.3411 -172.314 -5.0513 -4.5519 9.4158 7.42059 9.52745 8.89953 2.39976 -2.50802 2.69929 -4.23262 -1.33769 -1.9624 -7.8098 -13.9662 -3.58788 -0.0 0.0 0.0 -0.0 0.0 0.0 2.79452e-14 4.07549e-14 -1.81403e-13 73.482 -8.70539 13.0746 -4.85184 -1.55598 8.44286 -0.00358367 0.803725 0.112898 -6.83152e-10 -1.64961e-09 -1.04169e-09 -1.18245e-09 -2.85387e-09 -1.79781e-09 -6.83152e-10 -1.64961e-09 -1.04169e-09 7.73091 5.47488 0.417314 -6.83153e-10 -1.64961e-09 -1.04169e-09 2.90554 0.965183 0.102902 -6.83148e-10 -1.64961e-09 -1.04169e-09 10.2786 0.731801 0.0259123 -6.83158e-10 -1.64961e-09 -1.04169e-09 2.22167 -0.733487 -0.20892 2.78252e-14 4.07463e-14 -1.81745e-13 -84.6827 23.4825 9.8416 13.6496 -6.67458 -24.8529 0.0571752 6.79216 -0.959147 -6.35444e-10 6.16066e-10 -6.62608e-10 -1.10255e-09 1.06554e-09 -1.1423e-09 -6.35448e-10 6.16065e-10 -6.62591e-10 -7.73091 5.47488 -0.417314 -6.35443e-10 6.16065e-10 -6.62605e-10 -2.90554 0.965183 -0.102902 -6.35449e-10 6.16067e-10 -6.62605e-10 -10.2786 0.731801 -0.0259123 -6.35437e-10 6.16069e-10 -6.62615e-10 -2.22167 -0.733487 0.20892 -2.03217e-16 0.0 -3.88251e-19 6.73342 2.1214 -0.358085 -0.0151091 22.7407 0.732183 -1.11257 -9.3705 -2.07767 2.03217e-16 0.0 3.88251e-19 1.82409 -39.818 -3.19822 0.169627 27.6158 -0.400804 0.0432049 -0.802713 -4.57211
-0.995207 82.419 -171.6 -5.0379 -4.5961 9.0112 6.76667 9.7627 9.10576 2.3679 -2.62856 2.74968 -4.30577 -1.17763 -2.04947 -7.3344 -14.2984 -3.71499 -0.0 0.0 0.0 -0.0 0.0 0.0 -7.66588e-14 7.80953e-14 -2.7644e-13 73.5609 -8.93549 13.0655 -4.94041 -1.59195 8.59968 -0.00325205 0.581466 0.0816418 9.16273e-10 -2.70538e-09 -2.23659e-09 1.57993e-09 -4.68089e-09 -3.86616e-09 9.16272e-10 -2.70538e-09 -2.2366e-09 7.73091 5.47488 0.417314 9.16271e-10 -2.70538e-09 -2.23659e-09 2.90554 0.965183 0.102902 9.16274e-10 -2.70538e-09 -2.23659e-09 10.2786 0.731801 0.0259123 9.16266e-10 -2.70538e-09 -2.23658e-09 2.22167 -0.733487 -0.20892 -7.67494e-14 7.80995e-14 -2.76731e-13 -84.4749 23.3244 9.92556 13.5975 -6.63386 -24.7484 0.0582366 6.86229 -0.969132 9.63442e-10 1.53446e-09 1.57177e-10 1.66642e-09 2.6556e-09 2.6397e-10 9.63438e-10 1.53446e-09 1.5719e-10 -7.73091 5.47488 -0.417314 9.63443e-10 1.53446e-09 1.57179e-10 -2.90554 0.965183 -0.102902 9.63437e-10 1.53446e-09 1.5718e-10 -10.2786 0.731801 -0.0259123 9.63446e-10 1.53446e-09 1.57171e-10 -2.22167 -0.733487 0.20892 -2.03217e-16 0.0 -3.88251e-19 6.22184 1.58399 -0.346648 -0.0411285 24.7177 0.742547 -1.01475 -8.4714 -1.69886 2.03217e-16 0.0 3.88251e-19 1.30633 -39.3539 -3.53831 0.175882 28.165 -0.397402 -0.0408888 -1.2166 -4.96818
-0.822794 82.4126 -170.922 -4.6778 -4.6771 8.7601 6.19709 9.95929 9.22436 2.36765 -2.67025 2.77483 -4.42938 -1.14161 -2.13102 -6.8314 -14.4834 -3.79286 -0.0 0.0 0.0 -0.0 0.0 0.0 -1.26793e-13 1.01771e-13 -3.02799e-13 73.5238 -8.7684 13.1705 -5.03933 -1.63256 8.77483 -1.63853e-07 0.0115861 0.00162832 1.70778e-09 -3.00196e-09 -2.79779e-09 2.94686e-09 -5.19423e-09 -4.83823e-09 1.70778e-09 -3.00196e-09 -2.7978e-09 7.73091 5.47488 0.417314 1.70778e-09 -3.00196e-09 -2.79779e-09 2.90554 0.965183 0.102902 1.70778e-09 -3.00196e-09 -2.79779e-09 10.2786 0.731801 0.0259123 1.70777e-09 -3.00195e-09 -2.79778e-09 2.22167 -0.733487 -0.20892 -1.26865e-13 1.01784e-13 -3.03047e-13 -84.2696 23.0792 9.9029 13.5297 -6.5812 -24.6126 0.0600651 6.97629 -0.985377 1.75664e-09 1.96629e-09 6.89474e-10 3.04104e-09 3.4033e-09 1.17897e-09 1.75663e-09 1.96629e-09 6.89484e-10 -7.73091 5.47488 -0.417314 1.75664e-09 1.96629e-09 6.89474e-10 -2.90554 0.965183 -0.102902 1.75663e-09 1.96629e-09 6.89476e-10 -10.2786 0.731801 -0.0259123 1.75664e-09 1.96629e-09 6.89468e-10 -2.22167 -0.733487 0.20892 -2.03217e-16 0.0 -3.88251e-19 5.79747 1.01291 -0.351349 -0.0687115 26.6849 0.752223 -0.935983 -7.32588 -1.39961 2.03217e-16 0.0 3.88251e-19 0.903784 -38.8775 -3.70867 0.181913 28.6598 -0.392016 -0.128575 -1.67256 -5.32911
-0.763237 82.5138 -170.218 -4.6579 -4.5513 8.3778 5.76562 10.1188 9.20342 2.41673 -2.57004 2.76006 -4.65504 -1.34234 -2.19974 -6.26694 -14.4474 -3.77279 -0.0 0.0 0.0 -0.0 0.0 0.0 -8.74046e-14 1.04874e-13 -2.16285e-13 73.2966 -7.99875 13.4887 -5.14837 -1.67756 8.96828 0.00257366 -1.07364 -0.150805 1.2404e-09 -2.11527e-09 -2.32096e-09 2.13918e-09 -3.66013e-09 -4.0147e-09 1.2404e-09 -2.11527e-09 -2.32097e-09 7.73091 5.47488 0.417314 1.2404e-09 -2.11527e-09 -2.32096e-09 2.90554 0.965183 0.102902 1.2404e-09 -2.11527e-09 -2.32096e-09 10.2786 0.731801 0.0259123 1.2404e-09 -2.11527e-09 -2.32096e-09 2.22167 -0.733487 -0.20892 -8.74662e-14 1.04893e-13 -2.16499e-13 -84.0706 22.6548 9.68872 13.4279 -6.50242 -24.4091 0.0636227 7.18459 -1.01509 1.28794e-09 1.61426e-09 7.47645e-10 2.23173e-09 2.79391e-09 1.28331e-09 1.28793e-09 1.61426e-09 7.47652e-10 -7.73091 5.47488 -0.417314 1.28794e-09 1.61426e-09 7.47645e-10 -2.90554 0.965183 -0.102902 1.28793e-09 1.61426e-09 7.47646e-10 -10.2786 0.731801 -0.0259123 1.28794e-09 1.61426e-09 7.47638e-10 -2.22167 -0.733487 0.20892 -2.03217e-16 0.0 -3.88251e-19 5.50407 0.406848 -0.377002 -0.0971355 28.631 0.76026 -0.877645 -5.8616 -1.20356 2.03217e-16 0.0 3.88251e-19 0.680781 -38.409 -3.61182 0.187996 29.1117 -0.384312 -0.228231 -2.20637 -5.70018
